<?xml version="1.0" encoding="UTF-8" standalone="no"?>
<!-- Created with Inkscape (http://www.inkscape.org/) -->

<svg
   xmlns:dc="http://purl.org/dc/elements/1.1/"
   xmlns:cc="http://creativecommons.org/ns#"
   xmlns:rdf="http://www.w3.org/1999/02/22-rdf-syntax-ns#"
   xmlns:svg="http://www.w3.org/2000/svg"
   xmlns="http://www.w3.org/2000/svg"
   xmlns:sodipodi="http://sodipodi.sourceforge.net/DTD/sodipodi-0.dtd"
   xmlns:inkscape="http://www.inkscape.org/namespaces/inkscape"
   width="48"
   height="48"
   viewBox="0 0 47.999998 48.000002"
   id="svg4214"
   version="1.1"
   inkscape:version="0.91 r13725"
   sodipodi:docname="no-poster.svg">
  <defs
     id="defs4216" />
  <sodipodi:namedview
     id="base"
     pagecolor="#ffffff"
     bordercolor="#666666"
     borderopacity="1.0"
     inkscape:pageopacity="0.0"
     inkscape:pageshadow="2"
     inkscape:zoom="0.35"
     inkscape:cx="-353.85714"
     inkscape:cy="-127.42855"
     inkscape:document-units="px"
     inkscape:current-layer="layer1"
     showgrid="false"
     fit-margin-top="0"
     fit-margin-left="0"
     fit-margin-right="0"
     fit-margin-bottom="0"
     units="px"
     inkscape:window-width="1920"
     inkscape:window-height="1056"
     inkscape:window-x="0"
     inkscape:window-y="24"
     inkscape:window-maximized="1" />
  <metadata
     id="metadata4219">
    <rdf:RDF>
      <cc:Work
         rdf:about="">
        <dc:format>image/svg+xml</dc:format>
        <dc:type
           rdf:resource="http://purl.org/dc/dcmitype/StillImage" />
        <dc:title></dc:title>
      </cc:Work>
    </rdf:RDF>
  </metadata>
  <g
     inkscape:label="Layer 1"
     inkscape:groupmode="layer"
     id="layer1"
     transform="translate(-321.71428,-356.93364)">
    <g
       transform="matrix(0.37499998,0,0,0.37499994,349.91096,264.2731)"
       id="g4197">
      <path
         inkscape:connector-curvature="0"
         id="path642"
         style="fill:#eaeaea;fill-opacity:1;fill-rule:nonzero;stroke:none"
         d="m -75.191158,247.09481 128.000008,0 0,128.00002 -128.000008,0 0,-128.00002 z" />
      <path
         d="m 41.038781,355.23834 -104.458533,0 c -4.332049,0 -7.844484,-3.36279 -7.844484,-7.51186 l 0,-73.26434 c 0,-4.14779 3.512435,-7.51187 7.844484,-7.51187 l 104.458533,0 c 4.332048,0 7.843147,3.36408 7.843147,7.51187 l 0,73.26434 c 0,4.14907 -3.511099,7.51186 -7.843147,7.51186"
         style="fill:#6ef7b3;fill-opacity:1;fill-rule:nonzero;stroke:none"
         id="path646"
         inkscape:connector-curvature="0" />
      <path
         d="m -60.771854,263.16784 -3.961685,0 c -3.60603,0 -6.530163,-2.80063 -6.530163,-6.25434 l 0,0 c 0,-3.45371 2.924133,-6.25306 6.530163,-6.25306 l 3.961685,0 c 3.60603,0 6.530163,2.79935 6.530163,6.25306 l 0,0 c 0,3.45371 -2.924133,6.25434 -6.530163,6.25434"
         style="fill:#a38596;fill-opacity:1;fill-rule:nonzero;stroke:none"
         id="path650"
         inkscape:connector-curvature="0" />
      <path
         d="m -40.147157,263.16784 -3.961685,0 c -3.606029,0 -6.530162,-2.80063 -6.530162,-6.25434 l 0,0 c 0,-3.45371 2.924133,-6.25306 6.530162,-6.25306 l 3.961685,0 c 3.60603,0 6.530163,2.79935 6.530163,6.25306 l 0,0 c 0,3.45371 -2.924133,6.25434 -6.530163,6.25434"
         style="fill:#a38596;fill-opacity:1;fill-rule:nonzero;stroke:none"
         id="path654"
         inkscape:connector-curvature="0" />
      <path
         d="m -19.522326,263.16784 -3.961685,0 c -3.60603,0 -6.530163,-2.80063 -6.530163,-6.25434 l 0,0 c 0,-3.45371 2.924133,-6.25306 6.530163,-6.25306 l 3.961685,0 c 3.60603,0 6.530163,2.79935 6.530163,6.25306 l 0,0 c 0,3.45371 -2.924133,6.25434 -6.530163,6.25434"
         style="fill:#a38596;fill-opacity:1;fill-rule:nonzero;stroke:none"
         id="path658"
         inkscape:connector-curvature="0" />
      <path
         d="m 1.1025052,263.16784 -3.9616854,0 c -3.6060295,0 -6.5301625,-2.80063 -6.5301625,-6.25434 l 0,0 c 0,-3.45371 2.924133,-6.25306 6.5301625,-6.25306 l 3.9616854,0 c 3.6060295,0 6.5301624,2.79935 6.5301624,6.25306 l 0,0 c 0,3.45371 -2.9241329,6.25434 -6.5301624,6.25434"
         style="fill:#a38596;fill-opacity:1;fill-rule:nonzero;stroke:none"
         id="path662"
         inkscape:connector-curvature="0" />
      <path
         d="m 21.727336,263.16784 -3.961685,0 c -3.60603,0 -6.530163,-2.80063 -6.530163,-6.25434 l 0,0 c 0,-3.45371 2.924133,-6.25306 6.530163,-6.25306 l 3.961685,0 c 3.60603,0 6.530162,2.79935 6.530162,6.25306 l 0,0 c 0,3.45371 -2.924132,6.25434 -6.530162,6.25434"
         style="fill:#a38596;fill-opacity:1;fill-rule:nonzero;stroke:none"
         id="path666"
         inkscape:connector-curvature="0" />
      <path
         d="m 42.352167,263.16784 -3.961685,0 c -3.60603,0 -6.530163,-2.80063 -6.530163,-6.25434 l 0,0 c 0,-3.45371 2.924133,-6.25306 6.530163,-6.25306 l 3.961685,0 c 3.606029,0 6.530162,2.79935 6.530162,6.25306 l 0,0 c 0,3.45371 -2.924133,6.25434 -6.530162,6.25434"
         style="fill:#a38596;fill-opacity:1;fill-rule:nonzero;stroke:none"
         id="path670"
         inkscape:connector-curvature="0" />
      <path
         d="m -60.771854,371.52907 -3.961685,0 c -3.60603,0 -6.530163,-2.80062 -6.530163,-6.25434 l 0,0 c 0,-3.45371 2.924133,-6.25305 6.530163,-6.25305 l 3.961685,0 c 3.60603,0 6.530163,2.79934 6.530163,6.25305 l 0,0 c 0,3.45372 -2.924133,6.25434 -6.530163,6.25434"
         style="fill:#a38596;fill-opacity:1;fill-rule:nonzero;stroke:none"
         id="path674"
         inkscape:connector-curvature="0" />
      <path
         d="m -40.147157,371.52907 -3.961685,0 c -3.606029,0 -6.530162,-2.80062 -6.530162,-6.25434 l 0,0 c 0,-3.45371 2.924133,-6.25305 6.530162,-6.25305 l 3.961685,0 c 3.60603,0 6.530163,2.79934 6.530163,6.25305 l 0,0 c 0,3.45372 -2.924133,6.25434 -6.530163,6.25434"
         style="fill:#a38596;fill-opacity:1;fill-rule:nonzero;stroke:none"
         id="path678"
         inkscape:connector-curvature="0" />
      <path
         d="m -19.522326,371.52907 -3.961685,0 c -3.60603,0 -6.530163,-2.80062 -6.530163,-6.25434 l 0,0 c 0,-3.45371 2.924133,-6.25305 6.530163,-6.25305 l 3.961685,0 c 3.60603,0 6.530163,2.79934 6.530163,6.25305 l 0,0 c 0,3.45372 -2.924133,6.25434 -6.530163,6.25434"
         style="fill:#a38596;fill-opacity:1;fill-rule:nonzero;stroke:none"
         id="path682"
         inkscape:connector-curvature="0" />
      <path
         d="m 1.1025052,371.52907 -3.9616854,0 c -3.6060295,0 -6.5301625,-2.80062 -6.5301625,-6.25434 l 0,0 c 0,-3.45371 2.924133,-6.25305 6.5301625,-6.25305 l 3.9616854,0 c 3.6060295,0 6.5301624,2.79934 6.5301624,6.25305 l 0,0 c 0,3.45372 -2.9241329,6.25434 -6.5301624,6.25434"
         style="fill:#a38596;fill-opacity:1;fill-rule:nonzero;stroke:none"
         id="path686"
         inkscape:connector-curvature="0" />
      <path
         d="m 21.727336,371.52907 -3.961685,0 c -3.60603,0 -6.530163,-2.80062 -6.530163,-6.25434 l 0,0 c 0,-3.45371 2.924133,-6.25305 6.530163,-6.25305 l 3.961685,0 c 3.60603,0 6.530162,2.79934 6.530162,6.25305 l 0,0 c 0,3.45372 -2.924132,6.25434 -6.530162,6.25434"
         style="fill:#a38596;fill-opacity:1;fill-rule:nonzero;stroke:none"
         id="path690"
         inkscape:connector-curvature="0" />
      <path
         d="m 42.352167,371.52907 -3.961685,0 c -3.60603,0 -6.530163,-2.80062 -6.530163,-6.25434 l 0,0 c 0,-3.45371 2.924133,-6.25305 6.530163,-6.25305 l 3.961685,0 c 3.606029,0 6.530162,2.79934 6.530162,6.25305 l 0,0 c 0,3.45372 -2.924133,6.25434 -6.530162,6.25434"
         style="fill:#a38596;fill-opacity:1;fill-rule:nonzero;stroke:none"
         id="path694"
         inkscape:connector-curvature="0" />
      <path
         d="m 41.038781,355.23821 c 4.332048,0 7.843147,-3.36279 7.843147,-7.51186 l 0,-26.70002 -63.915101,-54.07618 -48.386579,0 c -4.332049,0 -7.844484,3.36407 -7.844484,7.51186 l 0,23.65225 67.5197936,57.12395 44.7832234,0 z"
         style="fill:#85e0b3;fill-opacity:1;fill-rule:nonzero;stroke:none"
         id="path698"
         inkscape:connector-curvature="0" />
    </g>
  </g>
</svg>
