<?xml version="1.0" encoding="UTF-8" standalone="no"?>
<!-- Created with Inkscape (http://www.inkscape.org/) -->

<svg
   xmlns:dc="http://purl.org/dc/elements/1.1/"
   xmlns:cc="http://creativecommons.org/ns#"
   xmlns:rdf="http://www.w3.org/1999/02/22-rdf-syntax-ns#"
   xmlns:svg="http://www.w3.org/2000/svg"
   xmlns="http://www.w3.org/2000/svg"
   xmlns:sodipodi="http://sodipodi.sourceforge.net/DTD/sodipodi-0.dtd"
   xmlns:inkscape="http://www.inkscape.org/namespaces/inkscape"
   width="191.99998"
   height="39.465546"
   viewBox="0 0 192 39.465544"
   id="svg2"
   version="1.1"
   inkscape:version="0.91 r13725"
   sodipodi:docname="logo.svg">
  <defs
     id="defs4" />
  <sodipodi:namedview
     id="base"
     pagecolor="#ffffff"
     bordercolor="#666666"
     borderopacity="1.0"
     inkscape:pageopacity="0.0"
     inkscape:pageshadow="2"
     inkscape:zoom="1.4"
     inkscape:cx="33.044695"
     inkscape:cy="-37.185341"
     inkscape:document-units="px"
     inkscape:current-layer="layer1"
     showgrid="false"
     fit-margin-top="0"
     fit-margin-left="0"
     fit-margin-right="0"
     fit-margin-bottom="0"
     inkscape:window-width="1280"
     inkscape:window-height="749"
     inkscape:window-x="0"
     inkscape:window-y="25"
     inkscape:window-maximized="1"
     units="px" />
  <metadata
     id="metadata7">
    <rdf:RDF>
      <cc:Work
         rdf:about="">
        <dc:format>image/svg+xml</dc:format>
        <dc:type
           rdf:resource="http://purl.org/dc/dcmitype/StillImage" />
        <dc:title></dc:title>
      </cc:Work>
    </rdf:RDF>
  </metadata>
  <g
     inkscape:label="Layer 1"
     inkscape:groupmode="layer"
     id="layer1"
     transform="translate(-82.737424,-271.27213)">
    <g
       id="g8124"
       transform="matrix(1.1563018,0,0,1.1563018,-12.932007,-48.568856)">
      <g
         id="g7828">
        <path
           inkscape:connector-curvature="0"
           id="path4164"
           style="font-style:normal;font-variant:normal;font-weight:normal;font-stretch:normal;font-size:medium;line-height:125%;font-family:'Nautilus Pompilius';-inkscape-font-specification:'Nautilus Pompilius';letter-spacing:0px;word-spacing:0px;fill:#6ef7b3;fill-opacity:1;stroke:none;stroke-width:1px;stroke-linecap:butt;stroke-linejoin:miter;stroke-opacity:1"
           d="m 100.78409,279.26199 0.20744,0 C 94.934485,299.50745 90.744338,304.6103 87.466896,305.8549 l 0,-0.37338 c 0,-0.95419 0.165947,-2.65514 0.871219,-4.27312 -0.580812,-0.45635 -1.327571,-0.70527 -2.07433,-0.70527 -1.866897,0 -3.526362,0.70527 -3.526362,3.11149 0,3.69231 1.493518,5.68367 3.567848,5.68367 4.936906,0 9.293,-5.8911 14.893689,-23.77183 l -0.20743,4.85394 -1.493519,18.37856 c 0.49784,0.3319 1.244599,0.53933 1.991359,0.53933 1.535,0 2.7796,-0.53933 3.52636,-2.44771 l 9.04408,-21.24114 -2.77961,18.75194 c -0.58081,3.81677 1.8669,4.93691 4.14867,4.93691 2.40622,0 4.85393,-1.74244 7.13569,-4.10718 0.24892,-0.2904 0.37338,-0.62229 0.37338,-0.9127 0,-0.41487 -0.24892,-0.78825 -0.70527,-0.99568 -0.95419,0.82973 -2.90406,2.07433 -4.23164,2.07433 -1.12013,0 -1.70095,-0.6223 -1.36905,-3.07001 l 3.4019,-23.89628 c -0.49784,-0.33189 -1.53501,-0.53933 -2.28176,-0.53933 -1.53501,0 -2.82109,0.78825 -3.56785,2.65515 l -9.62489,21.69749 1.49351,-22.07087 0.0415,0 c 0.95419,0 1.45203,-0.82974 1.45203,-1.61798 0,-0.41487 -0.16595,-0.82973 -0.58081,-1.07865 -1.78393,0.99568 -5.31029,-0.82974 -8.753673,-0.82974 -4.89542,0 -6.886777,2.98704 -6.886777,5.6007 0,2.07433 1.244599,3.94122 3.360415,3.94122 0.580813,0 1.161625,-0.12446 1.783924,-0.41486 -0.497839,-0.58081 -0.829732,-1.49352 -0.829732,-2.40623 0,-1.94987 1.369058,-4.06568 5.144333,-4.06568 z" />
        <path
           inkscape:connector-curvature="0"
           id="path4166"
           style="font-style:normal;font-variant:normal;font-weight:normal;font-stretch:normal;font-size:medium;line-height:125%;font-family:'Nautilus Pompilius';-inkscape-font-specification:'Nautilus Pompilius';letter-spacing:0px;word-spacing:0px;fill:#6ef7b3;fill-opacity:1;stroke:none;stroke-width:1px;stroke-linecap:butt;stroke-linejoin:miter;stroke-opacity:1"
           d="m 143.02653,290.00702 c -1.74244,1.41054 -3.27744,3.19447 -4.9369,4.23163 -0.66379,-1.20311 -1.8669,-1.90838 -3.27745,-1.90838 -2.36473,0 -3.27744,2.07433 -2.40622,4.35609 0.45635,0.29041 1.16163,0.45635 1.90839,0.49784 0.12446,0.58081 0.20743,1.16163 0.20743,1.70095 0,3.7338 -2.65514,6.8038 -4.77096,6.8038 -1.45203,0 -2.69663,-1.41054 -2.69663,-5.06136 0,-4.06569 2.44771,-9.62489 6.22299,-9.62489 0.99568,0 1.8669,0.16594 2.65514,0.45635 0.6223,0.24892 1.32757,-0.20743 1.41055,-1.16163 -1.2446,-1.86689 -2.90406,-2.44771 -4.9784,-2.44771 -6.26447,0 -10.62057,7.84097 -10.62057,14.10545 0,3.89974 1.82541,7.34313 6.09854,7.34313 4.97839,0 10.828,-6.26448 10.828,-12.61193 0,-0.12446 0,-0.29041 -0.0415,-0.45635 1.70095,-1.07865 3.31893,-3.02852 4.39758,-3.94123 0.58081,-0.49784 0.78825,-1.61798 0,-2.28176 z" />
        <path
           inkscape:connector-curvature="0"
           id="path4168"
           style="font-style:normal;font-variant:normal;font-weight:normal;font-stretch:normal;font-size:medium;line-height:125%;font-family:'Nautilus Pompilius';-inkscape-font-specification:'Nautilus Pompilius';letter-spacing:0px;word-spacing:0px;fill:#6ef7b3;fill-opacity:1;stroke:none;stroke-width:1px;stroke-linecap:butt;stroke-linejoin:miter;stroke-opacity:1"
           d="m 144.28475,292.41324 c -1.49352,4.81245 -1.36906,16.88505 3.02852,16.88505 4.48055,0 11.28436,-10.16422 11.28436,-19.66465 0,-3.02852 -1.74244,-4.56353 -3.36042,-4.60501 -1.36906,-0.0415 -2.69663,1.03716 -2.7796,3.19446 1.74244,0.78825 2.57217,3.23596 2.57217,6.01556 0,3.89974 -2.07433,8.25584 -5.22731,10.74503 -1.74244,-3.4019 -1.2446,-9.5834 -0.16595,-14.68626 0.37338,-1.57649 -0.49784,-2.28176 -1.99136,-2.28176 -1.74243,0 -3.23595,0.87122 -4.6465,1.99136 -0.82973,0.66378 -0.53932,1.94987 0,2.28176 0.37338,-0.33189 0.6223,-0.49784 0.82974,-0.49784 0.37338,0 0.53932,0.29041 0.45635,0.6223 z" />
        <path
           inkscape:connector-curvature="0"
           id="path4170"
           style="font-style:normal;font-variant:normal;font-weight:normal;font-stretch:normal;font-size:medium;line-height:125%;font-family:'Nautilus Pompilius';-inkscape-font-specification:'Nautilus Pompilius';letter-spacing:0px;word-spacing:0px;fill:#6ef7b3;fill-opacity:1;stroke:none;stroke-width:1px;stroke-linecap:butt;stroke-linejoin:miter;stroke-opacity:1"
           d="m 163.03345,282.66389 c -0.24892,1.61798 0.95419,2.90406 2.57217,2.90406 1.61797,0 2.98703,-1.28608 3.23595,-2.90406 0.16595,-1.61798 -1.03716,-2.90406 -2.65514,-2.90406 -1.61798,0 -2.98704,1.28608 -3.15298,2.90406 z m -3.77528,21.69749 c -0.78825,3.77528 1.61797,4.93691 3.6923,4.93691 2.77961,0 5.55921,-1.90838 7.50908,-4.10718 0.24892,-0.2904 0.37338,-0.62229 0.37338,-0.9127 0,-0.41487 -0.24892,-0.78825 -0.70527,-0.99568 -1.03717,1.03717 -2.82109,2.07433 -4.3561,2.07433 -1.07865,0 -1.74243,-0.74676 -1.2446,-3.07001 l 2.53069,-11.98963 c 0.33189,-1.57649 -0.49784,-2.28176 -1.99136,-2.28176 -1.74244,0 -3.23595,0.87122 -4.6465,1.99136 -0.82973,0.66378 -0.53932,1.94987 0,2.28176 0.37338,-0.33189 0.6223,-0.49784 0.82973,-0.49784 0.37338,0 0.53933,0.37338 0.41487,1.03717 l -2.40622,11.53327 z" />
        <path
           inkscape:connector-curvature="0"
           id="path4172"
           style="font-style:normal;font-variant:normal;font-weight:normal;font-stretch:normal;font-size:medium;line-height:125%;font-family:'Nautilus Pompilius';-inkscape-font-specification:'Nautilus Pompilius';letter-spacing:0px;word-spacing:0px;fill:#6ef7b3;fill-opacity:1;stroke:none;stroke-width:1px;stroke-linecap:butt;stroke-linejoin:miter;stroke-opacity:1"
           d="m 176.14516,309.29829 c 3.65082,0 7.46759,-2.57217 7.46759,-4.85393 0,-0.70528 -0.45635,-1.12014 -1.2446,-1.12014 -0.70527,1.49352 -2.03284,2.36473 -3.85825,2.36473 -1.78392,0 -3.19447,-0.95419 -3.60933,-3.07 8.00691,-4.43907 9.87381,-7.26016 9.87381,-10.78652 0,-1.8669 -0.95419,-3.98272 -4.72948,-3.98272 -6.84529,0 -10.41313,8.62922 -10.41313,14.02248 0,5.43474 2.69663,7.4261 6.51339,7.4261 z m 4.19015,-18.21262 c 0.70527,0 1.20311,0.66379 1.20311,1.61798 0,2.69663 -2.73811,5.60069 -6.76231,8.13137 0.12446,-2.90406 1.45203,-9.74935 5.5592,-9.74935 z" />
      </g>
      <path
         d="m 248.77443,298.548 c 0.0409,-0.80383 -0.28128,-1.55738 -0.86018,-2.00859 l -16.84986,-18.255 c -0.34789,-0.27934 -0.80357,-0.31516 -1.18855,-0.0934 l -5.41406,3.11854 c -0.88395,0.50938 -1.00884,1.89342 -0.23737,2.58864 l 0,0 c 0.75179,0.67763 1.78334,0.78559 2.63701,0.27637 l 2.48487,-1.48179 c 0.39739,-0.23695 0.87457,-0.19538 1.22836,0.10713 l 17.84145,22.80293 0.35833,-7.0549 z"
         style="fill:#d6d6d6;fill-opacity:1;fill-rule:nonzero;stroke:none"
         id="path552"
         inkscape:connector-curvature="0" />
      <path
         d="m 195.60625,298.548 c -0.0409,-0.80383 0.28128,-1.55738 0.86019,-2.00859 l 16.84986,-18.255 c 0.34789,-0.27934 0.80356,-0.31516 1.18854,-0.0934 l 5.41406,3.11854 c 0.88395,0.50938 1.00885,1.89342 0.23738,2.58864 l 0,0 c -0.75179,0.67763 -1.78334,0.78559 -2.63701,0.27637 l -2.48488,-1.48179 c -0.39739,-0.23695 -0.87456,-0.19538 -1.22836,0.10713 l -17.84145,22.80293 -0.35833,-7.0549 z"
         style="fill:#dbd9d9;fill-opacity:1;fill-rule:nonzero;stroke:none"
         id="path556"
         inkscape:connector-curvature="0" />
      <path
         d="m 225.99522,310.73768 20.59958,0 c 0.86185,0 1.5991,-0.75946 1.64679,-1.69951 l 0.53986,-10.62893 c 0.0499,-0.98294 -0.62736,-1.7825 -1.51312,-1.7825 l -25.07807,0 0,7.72679 3.80496,6.38415 z"
         style="fill:#e0e0e0;fill-opacity:1;fill-rule:nonzero;stroke:none"
         id="path560"
         inkscape:connector-curvature="0" />
      <path
         d="m 218.38544,310.73768 -20.59957,0 c -0.86186,0 -1.59911,-0.75946 -1.6468,-1.69951 l -0.53984,-10.62893 c -0.0499,-0.98294 0.62734,-1.7825 1.51311,-1.7825 l 25.07807,0 0,7.72679 -3.80497,6.38415 z"
         style="fill:#eaeaea;fill-opacity:1;fill-rule:nonzero;stroke:none"
         id="path564"
         inkscape:connector-curvature="0" />
      <path
         d="m 214.6606,308.57167 -12.68156,0 c -1.44378,0 -2.67108,-1.27886 -2.74163,-2.86533 l -0.17213,-3.87062 c -0.0719,-1.62032 1.06184,-2.94126 2.53271,-2.94126 l 12.92061,0 c 1.47103,0 2.67623,1.32094 2.69166,2.94126 l 0.037,3.87062 c 0.0152,1.58647 -1.14298,2.86533 -2.58676,2.86533"
         style="fill:#6ef7b3;fill-opacity:1;fill-rule:nonzero;stroke:none"
         id="path568"
         inkscape:connector-curvature="0" />
      <path
         d="m 217.24737,305.70631 -0.037,-3.87063 c -0.0155,-1.62031 -1.22063,-2.94125 -2.69167,-2.94125 l -12.9206,0 c -0.66838,0 -1.26636,0.27539 -1.71446,0.72627 l 16.16604,8.50861 c 0.72757,-0.50626 1.20761,-1.39932 1.19778,-2.423"
         style="fill:#6ed9b3;fill-opacity:1;fill-rule:nonzero;stroke:none"
         id="path572"
         inkscape:connector-curvature="0" />
      <path
         d="m 242.40165,308.57167 -12.68157,0 c -1.44378,0 -2.60189,-1.27886 -2.58675,-2.86533 l 0.037,-3.87062 c 0.0155,-1.62032 1.22065,-2.94126 2.69152,-2.94126 l 12.92076,0 c 1.47088,0 2.60462,1.32094 2.53256,2.94126 l -0.17198,3.87062 c -0.0705,1.58647 -1.29784,2.86533 -2.74162,2.86533"
         style="fill:#e49c63;fill-opacity:1;fill-rule:nonzero;stroke:none"
         id="path576"
         inkscape:connector-curvature="0" />
      <path
         d="m 245.14324,305.70631 0.17213,-3.87063 c 0.0721,-1.62031 -1.06168,-2.94125 -2.53271,-2.94125 l -12.92061,0 c -0.66853,0 -1.28134,0.27539 -1.75382,0.72627 l 15.70628,8.50861 c 0.75482,-0.50626 1.28316,-1.39932 1.32873,-2.423"
         style="fill:#d9926e;fill-opacity:1;fill-rule:nonzero;stroke:none"
         id="path580"
         inkscape:connector-curvature="0" />
    </g>
  </g>
</svg>
