<?xml version="1.0" encoding="UTF-8" standalone="no"?>
<!-- Created with Inkscape (http://www.inkscape.org/) -->

<svg
   xmlns:dc="http://purl.org/dc/elements/1.1/"
   xmlns:cc="http://creativecommons.org/ns#"
   xmlns:rdf="http://www.w3.org/1999/02/22-rdf-syntax-ns#"
   xmlns:svg="http://www.w3.org/2000/svg"
   xmlns="http://www.w3.org/2000/svg"
   xmlns:sodipodi="http://sodipodi.sourceforge.net/DTD/sodipodi-0.dtd"
   xmlns:inkscape="http://www.inkscape.org/namespaces/inkscape"
   width="191.99998"
   height="39.465546"
   viewBox="0 0 192 39.465544"
   id="svg2"
   version="1.1"
   inkscape:version="0.91 r13725"
   sodipodi:docname="logo.svg">
  <defs
     id="defs4" />
  <sodipodi:namedview
     id="base"
     pagecolor="#ffffff"
     bordercolor="#666666"
     borderopacity="1.0"
     inkscape:pageopacity="0.0"
     inkscape:pageshadow="2"
     inkscape:zoom="2.8"
     inkscape:cx="46.555868"
     inkscape:cy="-30.368038"
     inkscape:document-units="px"
     inkscape:current-layer="layer1"
     showgrid="false"
     fit-margin-top="0"
     fit-margin-left="0"
     fit-margin-right="0"
     fit-margin-bottom="0"
     inkscape:window-width="1920"
     inkscape:window-height="1056"
     inkscape:window-x="0"
     inkscape:window-y="24"
     inkscape:window-maximized="1"
     units="px" />
  <metadata
     id="metadata7">
    <rdf:RDF>
      <cc:Work
         rdf:about="">
        <dc:format>image/svg+xml</dc:format>
        <dc:type
           rdf:resource="http://purl.org/dc/dcmitype/StillImage" />
        <dc:title />
      </cc:Work>
    </rdf:RDF>
  </metadata>
  <g
     inkscape:label="Layer 1"
     inkscape:groupmode="layer"
     id="layer1"
     transform="translate(-82.737424,-271.27213)">
    <path
       inkscape:connector-curvature="0"
       id="path4164"
       style="font-style:normal;font-variant:normal;font-weight:normal;font-stretch:normal;font-size:medium;line-height:125%;font-family:'Nautilus Pompilius';-inkscape-font-specification:'Nautilus Pompilius';letter-spacing:0px;word-spacing:0px;fill:#85e0b3;fill-opacity:1;stroke:none;stroke-width:1px;stroke-linecap:butt;stroke-linejoin:miter;stroke-opacity:1"
       d="m 103.60482,274.34229 0.23986,0 c -7.003771,23.40986 -11.848846,29.31029 -15.638558,30.74943 l 0,-0.43174 c 0,-1.10334 0.191885,-3.07015 1.007392,-4.94102 -0.671594,-0.52768 -1.535072,-0.81551 -2.398551,-0.81551 -2.158696,0 -4.077539,0.81551 -4.077539,3.59783 0,4.26942 1.726958,6.57203 4.125509,6.57203 5.708554,0 10.745513,-6.81189 17.221597,-27.48741 l -0.23985,5.61262 -1.72696,21.25117 c 0.57566,0.38377 1.43913,0.62362 2.30261,0.62362 1.77493,0 3.21406,-0.62362 4.07754,-2.83029 l 10.45769,-24.56117 -3.21407,21.68291 c -0.67159,4.41333 2.1587,5.70855 4.79711,5.70855 2.78232,0 5.61261,-2.01478 8.25101,-4.74914 0.28783,-0.33579 0.43174,-0.71955 0.43174,-1.05535 0,-0.47972 -0.28782,-0.91146 -0.8155,-1.15131 -1.10333,0.95942 -3.35797,2.39855 -4.89305,2.39855 -1.29521,0 -1.96682,-0.71956 -1.58304,-3.54986 l 3.93362,-27.63131 c -0.57565,-0.38376 -1.77493,-0.62363 -2.6384,-0.62363 -1.77493,0 -3.26203,0.91146 -4.12551,3.07016 l -11.12928,25.08885 1.72695,-25.52059 0.048,0 c 1.10333,0 1.67898,-0.95943 1.67898,-1.87087 0,-0.47972 -0.19189,-0.95942 -0.67159,-1.24725 -2.06276,1.15131 -6.1403,-0.95943 -10.12189,-0.95943 -5.66058,0 -7.96319,3.45392 -7.96319,6.4761 0,2.39855 1.439132,4.55724 3.885654,4.55724 0.671595,0 1.343189,-0.14391 2.062754,-0.4797 -0.575652,-0.67159 -0.95942,-1.72696 -0.95942,-2.78233 0,-2.25464 1.583044,-4.70115 5.948402,-4.70115 z" />
    <path
       inkscape:connector-curvature="0"
       id="path4166"
       style="font-style:normal;font-variant:normal;font-weight:normal;font-stretch:normal;font-size:medium;line-height:125%;font-family:'Nautilus Pompilius';-inkscape-font-specification:'Nautilus Pompilius';letter-spacing:0px;word-spacing:0px;fill:#85e0b3;fill-opacity:1;stroke:none;stroke-width:1px;stroke-linecap:butt;stroke-linejoin:miter;stroke-opacity:1"
       d="m 152.44983,286.76678 c -2.01479,1.63101 -3.78971,3.69377 -5.70855,4.89304 -0.76754,-1.39115 -2.1587,-2.20666 -3.78972,-2.20666 -2.73434,0 -3.78971,2.39855 -2.78232,5.03696 0.52768,0.3358 1.3432,0.52767 2.20668,0.57565 0.14391,0.67159 0.23985,1.34319 0.23985,1.96681 0,4.3174 -3.07014,7.86725 -5.51667,7.86725 -1.67899,0 -3.11812,-1.63101 -3.11812,-5.85246 0,-4.70117 2.83029,-11.12928 7.19566,-11.12928 1.1513,0 2.1587,0.19188 3.07014,0.52768 0.71957,0.28782 1.53507,-0.23985 1.63102,-1.3432 -1.43913,-2.15868 -3.35797,-2.83029 -5.75653,-2.83029 -7.24362,0 -12.28059,9.06653 -12.28059,16.31016 0,4.50928 2.11073,8.49087 7.05176,8.49087 5.75652,0 12.52043,-7.24363 12.52043,-14.58319 0,-0.14392 0,-0.33581 -0.048,-0.52768 1.96681,-1.24725 3.83768,-3.50189 5.08493,-4.55725 0.67159,-0.57566 0.91145,-1.87088 0,-2.63841 z" />
    <path
       inkscape:connector-curvature="0"
       id="path4168"
       style="font-style:normal;font-variant:normal;font-weight:normal;font-stretch:normal;font-size:medium;line-height:125%;font-family:'Nautilus Pompilius';-inkscape-font-specification:'Nautilus Pompilius';letter-spacing:0px;word-spacing:0px;fill:#85e0b3;fill-opacity:1;stroke:none;stroke-width:1px;stroke-linecap:butt;stroke-linejoin:miter;stroke-opacity:1"
       d="m 153.90471,289.5491 c -1.72696,5.56464 -1.58305,19.52421 3.50188,19.52421 5.18087,0 13.04813,-11.7529 13.04813,-22.73827 0,-3.50188 -2.01479,-5.27681 -3.88566,-5.32478 -1.58305,-0.048 -3.11812,1.19927 -3.21406,3.69376 2.01479,0.91146 2.97421,3.74175 2.97421,6.9558 0,4.50928 -2.39855,9.54625 -6.04435,12.4245 -2.01479,-3.93362 -1.43913,-11.0813 -0.19189,-16.98175 0.43174,-1.82289 -0.57565,-2.6384 -2.30261,-2.6384 -2.01478,0 -3.74174,1.00739 -5.37276,2.30261 -0.95942,0.76753 -0.62362,2.25464 0,2.63841 0.43174,-0.38377 0.71957,-0.57566 0.95943,-0.57566 0.43174,0 0.62362,0.3358 0.52768,0.71957 z" />
    <path
       inkscape:connector-curvature="0"
       id="path4170"
       style="font-style:normal;font-variant:normal;font-weight:normal;font-stretch:normal;font-size:medium;line-height:125%;font-family:'Nautilus Pompilius';-inkscape-font-specification:'Nautilus Pompilius';letter-spacing:0px;word-spacing:0px;fill:#85e0b3;fill-opacity:1;stroke:none;stroke-width:1px;stroke-linecap:butt;stroke-linejoin:miter;stroke-opacity:1"
       d="m 175.58386,278.27591 c -0.28782,1.87087 1.10334,3.35797 2.97421,3.35797 1.87086,0 3.45391,-1.4871 3.74173,-3.35797 0.19189,-1.87087 -1.19927,-3.35797 -3.07014,-3.35797 -1.87087,0 -3.45392,1.4871 -3.6458,3.35797 z m -4.36536,25.08885 c -0.91145,4.36536 1.87086,5.70855 4.26941,5.70855 3.21407,0 6.42813,-2.20666 8.68277,-4.74914 0.28782,-0.33579 0.43174,-0.71955 0.43174,-1.05535 0,-0.47972 -0.28783,-0.91146 -0.81551,-1.15131 -1.19928,1.19928 -3.26203,2.39855 -5.03696,2.39855 -1.24725,0 -2.01478,-0.86348 -1.43914,-3.54986 l 2.92624,-13.86363 c 0.38377,-1.82289 -0.57565,-2.6384 -2.30261,-2.6384 -2.01479,0 -3.74173,1.00739 -5.37276,2.30261 -0.95941,0.76753 -0.62361,2.25464 0,2.63841 0.43174,-0.38377 0.71957,-0.57566 0.95942,-0.57566 0.43174,0 0.62363,0.43174 0.47972,1.19928 l -2.78232,13.33595 z" />
    <path
       inkscape:connector-curvature="0"
       id="path4172"
       style="font-style:normal;font-variant:normal;font-weight:normal;font-stretch:normal;font-size:medium;line-height:125%;font-family:'Nautilus Pompilius';-inkscape-font-specification:'Nautilus Pompilius';letter-spacing:0px;word-spacing:0px;fill:#85e0b3;fill-opacity:1;stroke:none;stroke-width:1px;stroke-linecap:butt;stroke-linejoin:miter;stroke-opacity:1"
       d="m 190.74496,309.07331 c 4.22145,0 8.63479,-2.9742 8.63479,-5.6126 0,-0.81552 -0.52768,-1.29522 -1.43914,-1.29522 -0.8155,1.72696 -2.35057,2.73434 -4.4613,2.73434 -2.06275,0 -3.69377,-1.10333 -4.17347,-3.54985 9.2584,-5.1329 11.4171,-8.39494 11.4171,-12.47247 0,-2.1587 -1.10333,-4.60523 -5.46871,-4.60523 -7.91522,0 -12.04072,9.97798 -12.04072,16.21422 0,6.2842 3.11812,8.58681 7.53145,8.58681 z m 4.84508,-21.05928 c 0.8155,0 1.39115,0.76754 1.39115,1.87087 0,3.11812 -3.16608,6.47609 -7.81927,9.40232 0.14392,-3.35797 1.67899,-11.27319 6.42812,-11.27319 z" />
    <path
       inkscape:connector-curvature="0"
       id="path552"
       style="fill:#d6d6d6;fill-opacity:1;fill-rule:nonzero;stroke:none"
       d="m 274.72631,296.64273 c 0.0473,-0.92947 -0.32524,-1.8008 -0.99462,-2.32253 l -19.48353,-21.10829 c -0.40226,-0.323 -0.92917,-0.36442 -1.37432,-0.108 l -6.26029,3.60597 c -1.02211,0.589 -1.16652,2.18937 -0.27447,2.99325 l 0,0 c 0.8693,0.78355 2.06208,0.90838 3.04918,0.31957 l 2.87326,-1.7134 c 0.4595,-0.27398 1.01127,-0.22592 1.42036,0.12388 l 20.6301,26.36707 0.41433,-8.1576 z" />
    <path
       inkscape:connector-curvature="0"
       id="path556"
       style="fill:#dbd9d9;fill-opacity:1;fill-rule:nonzero;stroke:none"
       d="m 213.24785,296.64273 c -0.0473,-0.92947 0.32525,-1.8008 0.99464,-2.32253 l 19.48352,-21.10829 c 0.40227,-0.323 0.92916,-0.36442 1.37432,-0.108 l 6.26028,3.60597 c 1.02212,0.589 1.16654,2.18937 0.27449,2.99325 l 0,0 c -0.8693,0.78355 -2.06208,0.90838 -3.04918,0.31957 l -2.87327,-1.7134 c -0.45951,-0.27398 -1.01126,-0.22592 -1.42036,0.12388 l -20.6301,26.36707 -0.41434,-8.1576 z" />
    <path
       inkscape:connector-curvature="0"
       id="path560"
       style="fill:#e0e0e0;fill-opacity:1;fill-rule:nonzero;stroke:none"
       d="m 248.38667,310.73768 23.81933,0 c 0.99656,0 1.84905,-0.87816 1.90419,-1.96514 l 0.62424,-12.29025 c 0.0577,-1.13658 -0.72542,-2.06111 -1.74962,-2.06111 l -28.99782,0 0,8.9345 4.39968,7.382 z" />
    <path
       inkscape:connector-curvature="0"
       id="path564"
       style="fill:#eaeaea;fill-opacity:1;fill-rule:nonzero;stroke:none"
       d="m 239.58747,310.73768 -23.81932,0 c -0.99657,0 -1.84905,-0.87816 -1.9042,-1.96514 l -0.62422,-12.29025 c -0.0577,-1.13658 0.7254,-2.06111 1.74962,-2.06111 l 28.99781,0 0,8.9345 -4.39969,7.382 z" />
    <path
       inkscape:connector-curvature="0"
       id="path568"
       style="fill:#6ef7b3;fill-opacity:1;fill-rule:nonzero;stroke:none"
       d="m 235.28043,308.23312 -14.66371,0 c -1.66944,0 -3.08857,-1.47875 -3.17015,-3.31318 l -0.19904,-4.47561 c -0.0831,-1.87358 1.22781,-3.40098 2.92858,-3.40098 l 14.94013,0 c 1.70095,0 3.09453,1.5274 3.11237,3.40098 l 0.0428,4.47561 c 0.0176,1.83443 -1.32163,3.31318 -2.99107,3.31318" />
    <path
       inkscape:connector-curvature="0"
       id="path572"
       style="fill:#85e0b3;fill-opacity:1;fill-rule:nonzero;stroke:none"
       d="m 238.27152,304.9199 -0.0428,-4.47562 c -0.0179,-1.87356 -1.41141,-3.40097 -3.11238,-3.40097 l -14.94011,0 c -0.77285,0 -1.4643,0.31844 -1.98243,0.83979 l 18.69282,9.83852 c 0.84129,-0.58539 1.39636,-1.61804 1.38499,-2.80172" />
    <path
       inkscape:connector-curvature="0"
       id="path576"
       style="fill:#a38596;fill-opacity:1;fill-rule:nonzero;stroke:none"
       d="m 267.35746,308.23312 -14.66372,0 c -1.66945,0 -3.00858,-1.47875 -2.99107,-3.31318 l 0.0428,-4.47561 c 0.0179,-1.87358 1.41144,-3.40098 3.11221,-3.40098 l 14.9403,0 c 1.70078,0 3.01173,1.5274 2.92841,3.40098 l -0.19887,4.47561 c -0.0815,1.83443 -1.50069,3.31318 -3.17014,3.31318" />
    <path
       inkscape:connector-curvature="0"
       id="path580"
       style="fill:#98758a;fill-opacity:1;fill-rule:nonzero;stroke:none"
       d="m 270.52756,304.9199 0.19904,-4.47562 c 0.0834,-1.87356 -1.22763,-3.40097 -2.92858,-3.40097 l -14.94012,0 c -0.77303,0 -1.48162,0.31844 -2.02795,0.83979 l 18.1612,9.83852 c 0.8728,-0.58539 1.48372,-1.61804 1.53641,-2.80172" />
  </g>
</svg>
