<?xml version="1.0" encoding="UTF-8" standalone="no"?>
<!-- Created with Inkscape (http://www.inkscape.org/) -->

<svg
   xmlns:dc="http://purl.org/dc/elements/1.1/"
   xmlns:cc="http://creativecommons.org/ns#"
   xmlns:rdf="http://www.w3.org/1999/02/22-rdf-syntax-ns#"
   xmlns:svg="http://www.w3.org/2000/svg"
   xmlns="http://www.w3.org/2000/svg"
   xmlns:sodipodi="http://sodipodi.sourceforge.net/DTD/sodipodi-0.dtd"
   xmlns:inkscape="http://www.inkscape.org/namespaces/inkscape"
   width="48.95409mm"
   height="13.546667mm"
   viewBox="0 0 173.45938 48.000001"
   id="svg2"
   version="1.1"
   inkscape:version="0.91 r13725"
   sodipodi:docname="logo.svg">
  <defs
     id="defs4" />
  <sodipodi:namedview
     id="base"
     pagecolor="#ffffff"
     bordercolor="#666666"
     borderopacity="1.0"
     inkscape:pageopacity="0.0"
     inkscape:pageshadow="2"
     inkscape:zoom="3.959798"
     inkscape:cx="91.367499"
     inkscape:cy="-14.980467"
     inkscape:document-units="px"
     inkscape:current-layer="layer1"
     showgrid="false"
     fit-margin-top="0"
     fit-margin-left="0"
     fit-margin-right="0"
     fit-margin-bottom="0"
     inkscape:window-width="1920"
     inkscape:window-height="1056"
     inkscape:window-x="0"
     inkscape:window-y="24"
     inkscape:window-maximized="1" />
  <metadata
     id="metadata7">
    <rdf:RDF>
      <cc:Work
         rdf:about="">
        <dc:format>image/svg+xml</dc:format>
        <dc:type
           rdf:resource="http://purl.org/dc/dcmitype/StillImage" />
        <dc:title />
      </cc:Work>
    </rdf:RDF>
  </metadata>
  <g
     inkscape:label="Layer 1"
     inkscape:groupmode="layer"
     id="layer1"
     transform="translate(-82.737423,-276.60684)">
    <g
       transform="matrix(1.0371651,0,0,1.0371651,-3.0749431,-12.06404)"
       style="font-style:normal;font-weight:normal;font-size:40px;line-height:125%;font-family:sans-serif;letter-spacing:0px;word-spacing:0px;fill:#97db94;fill-opacity:1;stroke:none;stroke-width:1px;stroke-linecap:butt;stroke-linejoin:miter;stroke-opacity:1"
       id="flowRoot4136">
      <path
         d="m 100.13742,280.88684 0.2,0 c -5.839998,19.52 -9.879998,24.44 -13.039998,25.64 l 0,-0.36 c 0,-0.92 0.16,-2.56 0.84,-4.12 -0.56,-0.44 -1.28,-0.68 -2,-0.68 -1.8,0 -3.4,0.68 -3.4,3 0,3.56 1.44,5.48 3.44,5.48 4.76,0 8.96,-5.68 14.359998,-22.92 l -0.2,4.68 -1.439998,17.72 c 0.48,0.32 1.199998,0.52 1.919998,0.52 1.48,0 2.68,-0.52 3.4,-2.36 l 8.72,-20.48 -2.68,18.08 c -0.56,3.68 1.8,4.76 4,4.76 2.32,0 4.68,-1.68 6.88,-3.96 0.24,-0.28 0.36,-0.6 0.36,-0.88 0,-0.4 -0.24,-0.76 -0.68,-0.96 -0.92,0.8 -2.8,2 -4.08,2 -1.08,0 -1.64,-0.6 -1.32,-2.96 l 3.28,-23.04 c -0.48,-0.32 -1.48,-0.52 -2.2,-0.52 -1.48,0 -2.72,0.76 -3.44,2.56 l -9.28,20.92 1.44,-21.28 0.04,0 c 0.92,0 1.4,-0.8 1.4,-1.56 0,-0.4 -0.16,-0.8 -0.56,-1.04 -1.72,0.96 -5.12,-0.8 -8.439998,-0.8 -4.72,0 -6.64,2.88 -6.64,5.4 0,2 1.2,3.8 3.24,3.8 0.56,0 1.12,-0.12 1.72,-0.4 -0.48,-0.56 -0.8,-1.44 -0.8,-2.32 0,-1.88 1.32,-3.92 4.959998,-3.92 z"
         style="font-style:normal;font-variant:normal;font-weight:normal;font-stretch:normal;font-family:'Nautilus Pompilius';-inkscape-font-specification:'Nautilus Pompilius';fill:#97db94;fill-opacity:1"
         id="path4164" />
      <path
         d="m 140.86617,291.24684 c -1.68,1.36 -3.16,3.08 -4.76,4.08 -0.64,-1.16 -1.8,-1.84 -3.16,-1.84 -2.28,0 -3.16,2 -2.32,4.2 0.44,0.28 1.12,0.44 1.84,0.48 0.12,0.56 0.2,1.12 0.2,1.64 0,3.6 -2.56,6.56 -4.6,6.56 -1.4,0 -2.6,-1.36 -2.6,-4.88 0,-3.92 2.36,-9.28 6,-9.28 0.96,0 1.8,0.16 2.56,0.44 0.6,0.24 1.28,-0.2 1.36,-1.12 -1.2,-1.8 -2.8,-2.36 -4.8,-2.36 -6.04,0 -10.24,7.56 -10.24,13.6 0,3.76 1.76,7.08 5.88,7.08 4.8,0 10.44,-6.04 10.44,-12.16 0,-0.12 0,-0.28 -0.04,-0.44 1.64,-1.04 3.2,-2.92 4.24,-3.8 0.56,-0.48 0.76,-1.56 0,-2.2 z"
         style="font-style:normal;font-variant:normal;font-weight:normal;font-stretch:normal;font-family:'Nautilus Pompilius';-inkscape-font-specification:'Nautilus Pompilius';fill:#97db94;fill-opacity:1"
         id="path4166" />
      <path
         d="m 142.0793,293.56684 c -1.44,4.64 -1.32,16.28 2.92,16.28 4.32,0 10.88,-9.8 10.88,-18.96 0,-2.92 -1.68,-4.4 -3.24,-4.44 -1.32,-0.04 -2.6,1 -2.68,3.08 1.68,0.76 2.48,3.12 2.48,5.8 0,3.76 -2,7.96 -5.04,10.36 -1.68,-3.28 -1.2,-9.24 -0.16,-14.16 0.36,-1.52 -0.48,-2.2 -1.92,-2.2 -1.68,0 -3.12,0.84 -4.48,1.92 -0.8,0.64 -0.52,1.88 0,2.2 0.36,-0.32 0.6,-0.48 0.8,-0.48 0.36,0 0.52,0.28 0.44,0.6 z"
         style="font-style:normal;font-variant:normal;font-weight:normal;font-stretch:normal;font-family:'Nautilus Pompilius';-inkscape-font-specification:'Nautilus Pompilius';fill:#97db94;fill-opacity:1"
         id="path4168" />
      <path
         d="m 160.15617,284.16684 c -0.24,1.56 0.92,2.8 2.48,2.8 1.56,0 2.88,-1.24 3.12,-2.8 0.16,-1.56 -1,-2.8 -2.56,-2.8 -1.56,0 -2.88,1.24 -3.04,2.8 z m -3.64,20.92 c -0.76,3.64 1.56,4.76 3.56,4.76 2.68,0 5.36,-1.84 7.24,-3.96 0.24,-0.28 0.36,-0.6 0.36,-0.88 0,-0.4 -0.24,-0.76 -0.68,-0.96 -1,1 -2.72,2 -4.2,2 -1.04,0 -1.68,-0.72 -1.2,-2.96 l 2.44,-11.56 c 0.32,-1.52 -0.48,-2.2 -1.92,-2.2 -1.68,0 -3.12,0.84 -4.48,1.92 -0.8,0.64 -0.52,1.88 0,2.2 0.36,-0.32 0.6,-0.48 0.8,-0.48 0.36,0 0.52,0.36 0.4,1 l -2.32,11.12 z"
         style="font-style:normal;font-variant:normal;font-weight:normal;font-stretch:normal;font-family:'Nautilus Pompilius';-inkscape-font-specification:'Nautilus Pompilius';fill:#97db94;fill-opacity:1"
         id="path4170" />
      <path
         d="m 172.79805,309.84684 c 3.52,0 7.2,-2.48 7.2,-4.68 0,-0.68 -0.44,-1.08 -1.2,-1.08 -0.68,1.44 -1.96,2.28 -3.72,2.28 -1.72,0 -3.08,-0.92 -3.48,-2.96 7.72,-4.28 9.52,-7 9.52,-10.4 0,-1.8 -0.92,-3.84 -4.56,-3.84 -6.6,0 -10.04,8.32 -10.04,13.52 0,5.24 2.6,7.16 6.28,7.16 z m 4.04,-17.56 c 0.68,0 1.16,0.64 1.16,1.56 0,2.6 -2.64,5.4 -6.52,7.84 0.12,-2.8 1.4,-9.4 5.36,-9.4 z"
         style="font-style:normal;font-variant:normal;font-weight:normal;font-stretch:normal;font-family:'Nautilus Pompilius';-inkscape-font-specification:'Nautilus Pompilius';fill:#97db94;fill-opacity:1"
         id="path4172" />
      <path
         d="m 202.34117,289.16684 c -5.56,0 -10.08,6.96 -10.08,13.96 0,2.56 0.84,6.72 5,6.72 2.28,0 4.4,-1.68 6.08,-4.04 -0.04,3.16 1.84,4.04 3.72,4.04 2.16,0 5.04,-1.84 6.92,-3.96 0.24,-0.28 0.36,-0.6 0.36,-0.88 0,-0.4 -0.24,-0.76 -0.68,-0.96 -1,1 -2.72,2 -4.2,2 -1.04,0 -1.68,-0.72 -1.2,-2.96 l 2.8,-13.24 c -0.48,-0.32 -1.16,-0.52 -1.88,-0.52 -1,0 -2.04,0.36 -2.72,1.16 -1,-0.88 -2.32,-1.32 -4.12,-1.32 z m 1.08,14.04 c -1.08,1.48 -2.76,2.52 -4.04,2.52 -1.24,0 -2.16,-0.88 -2.16,-2.88 0,-4.36 1.72,-10.68 6.56,-10.68 0.6,0 1.2,0.08 1.88,0.32 l -2.24,10.72 z"
         style="font-style:normal;font-variant:normal;font-weight:normal;font-stretch:normal;font-family:'Nautilus Pompilius';-inkscape-font-specification:'Nautilus Pompilius';fill:#97db94;fill-opacity:1"
         id="path4174" />
      <path
         d="m 209.07867,324.08684 c 0.48,0.32 1.16,0.52 1.88,0.52 1.44,0 2.84,-0.68 3.24,-2.52 l 2.76,-13.28 c 0.8,0.68 1.8,1.04 2.76,1.04 6.84,0 11.2,-7.92 11.2,-13.92 0,-3.64 -1.56,-6.6 -5.08,-6.6 -2,0 -3.88,1.24 -5.44,3.16 l 0.2,-0.96 c 0.36,-1.52 -0.48,-2.2 -1.92,-2.2 -1.68,0 -3.12,0.84 -4.48,1.92 -0.8,0.64 -0.52,1.88 0,2.2 0.36,-0.32 0.6,-0.48 0.8,-0.48 0.36,0 0.56,0.36 0.4,1 l -6.32,30.12 z m 14.56,-30.76 c 1.36,0 2.36,1.24 2.36,4.04 0,3.96 -2.44,9.4 -6.52,9.4 -0.64,0 -1.28,-0.04 -2,-0.44 l 2.2,-10.44 c 1.32,-1.64 2.76,-2.56 3.96,-2.56 z"
         style="font-style:normal;font-variant:normal;font-weight:normal;font-stretch:normal;font-family:'Nautilus Pompilius';-inkscape-font-specification:'Nautilus Pompilius';fill:#97db94;fill-opacity:1"
         id="path4176" />
      <path
         d="m 228.14117,324.08684 c 0.48,0.32 1.16,0.52 1.88,0.52 1.44,0 2.84,-0.68 3.24,-2.52 l 2.76,-13.28 c 0.8,0.68 1.8,1.04 2.76,1.04 6.84,0 11.2,-7.92 11.2,-13.92 0,-3.64 -1.56,-6.6 -5.08,-6.6 -2,0 -3.88,1.24 -5.44,3.16 l 0.2,-0.96 c 0.36,-1.52 -0.48,-2.2 -1.92,-2.2 -1.68,0 -3.12,0.84 -4.48,1.92 -0.8,0.64 -0.52,1.88 0,2.2 0.36,-0.32 0.6,-0.48 0.8,-0.48 0.36,0 0.56,0.36 0.4,1 l -6.32,30.12 z m 14.56,-30.76 c 1.36,0 2.36,1.24 2.36,4.04 0,3.96 -2.44,9.4 -6.52,9.4 -0.64,0 -1.28,-0.04 -2,-0.44 l 2.2,-10.44 c 1.32,-1.64 2.76,-2.56 3.96,-2.56 z"
         style="font-style:normal;font-variant:normal;font-weight:normal;font-stretch:normal;font-family:'Nautilus Pompilius';-inkscape-font-specification:'Nautilus Pompilius';fill:#97db94;fill-opacity:1"
         id="path4178" />
    </g>
    <g
       transform="matrix(1.0371651,0,0,1.0371651,-34.246243,100.3243)"
       style="font-style:normal;font-weight:normal;font-size:40px;line-height:125%;font-family:sans-serif;letter-spacing:0px;word-spacing:0px;fill:#6bde85;fill-opacity:1;stroke:none;stroke-width:1px;stroke-linecap:butt;stroke-linejoin:miter;stroke-opacity:1"
       id="flowRoot4136-3">
      <path
         inkscape:connector-curvature="0"
         d="m 100.13742,280.88684 0.2,0 c -5.839998,19.52 -9.879998,24.44 -13.039998,25.64 l 0,-0.36 c 0,-0.92 0.16,-2.56 0.84,-4.12 -0.56,-0.44 -1.28,-0.68 -2,-0.68 -1.8,0 -3.4,0.68 -3.4,3 0,3.56 1.44,5.48 3.44,5.48 4.76,0 8.96,-5.68 14.359998,-22.92 l -0.2,4.68 -1.439998,17.72 c 0.48,0.32 1.199998,0.52 1.919998,0.52 1.48,0 2.68,-0.52 3.4,-2.36 l 8.72,-20.48 -2.68,18.08 c -0.56,3.68 1.8,4.76 4,4.76 2.32,0 4.68,-1.68 6.88,-3.96 0.24,-0.28 0.36,-0.6 0.36,-0.88 0,-0.4 -0.24,-0.76 -0.68,-0.96 -0.92,0.8 -2.8,2 -4.08,2 -1.08,0 -1.64,-0.6 -1.32,-2.96 l 3.28,-23.04 c -0.48,-0.32 -1.48,-0.52 -2.2,-0.52 -1.48,0 -2.72,0.76 -3.44,2.56 l -9.28,20.92 1.44,-21.28 0.04,0 c 0.92,0 1.4,-0.8 1.4,-1.56 0,-0.4 -0.16,-0.8 -0.56,-1.04 -1.72,0.96 -5.12,-0.8 -8.439998,-0.8 -4.72,0 -6.64,2.88 -6.64,5.4 0,2 1.2,3.8 3.24,3.8 0.56,0 1.12,-0.12 1.72,-0.4 -0.48,-0.56 -0.8,-1.44 -0.8,-2.32 0,-1.88 1.32,-3.92 4.959998,-3.92 z"
         style="font-style:normal;font-variant:normal;font-weight:normal;font-stretch:normal;font-family:'Nautilus Pompilius';-inkscape-font-specification:'Nautilus Pompilius';fill:#6bde85;fill-opacity:1"
         id="path4164-6" />
      <path
         inkscape:connector-curvature="0"
         d="m 140.86617,291.24684 c -1.68,1.36 -3.16,3.08 -4.76,4.08 -0.64,-1.16 -1.8,-1.84 -3.16,-1.84 -2.28,0 -3.16,2 -2.32,4.2 0.44,0.28 1.12,0.44 1.84,0.48 0.12,0.56 0.2,1.12 0.2,1.64 0,3.6 -2.56,6.56 -4.6,6.56 -1.4,0 -2.6,-1.36 -2.6,-4.88 0,-3.92 2.36,-9.28 6,-9.28 0.96,0 1.8,0.16 2.56,0.44 0.6,0.24 1.28,-0.2 1.36,-1.12 -1.2,-1.8 -2.8,-2.36 -4.8,-2.36 -6.04,0 -10.24,7.56 -10.24,13.6 0,3.76 1.76,7.08 5.88,7.08 4.8,0 10.44,-6.04 10.44,-12.16 0,-0.12 0,-0.28 -0.04,-0.44 1.64,-1.04 3.2,-2.92 4.24,-3.8 0.56,-0.48 0.76,-1.56 0,-2.2 z"
         style="font-style:normal;font-variant:normal;font-weight:normal;font-stretch:normal;font-family:'Nautilus Pompilius';-inkscape-font-specification:'Nautilus Pompilius';fill:#6bde85;fill-opacity:1"
         id="path4166-7" />
      <path
         inkscape:connector-curvature="0"
         d="m 142.0793,293.56684 c -1.44,4.64 -1.32,16.28 2.92,16.28 4.32,0 10.88,-9.8 10.88,-18.96 0,-2.92 -1.68,-4.4 -3.24,-4.44 -1.32,-0.04 -2.6,1 -2.68,3.08 1.68,0.76 2.48,3.12 2.48,5.8 0,3.76 -2,7.96 -5.04,10.36 -1.68,-3.28 -1.2,-9.24 -0.16,-14.16 0.36,-1.52 -0.48,-2.2 -1.92,-2.2 -1.68,0 -3.12,0.84 -4.48,1.92 -0.8,0.64 -0.52,1.88 0,2.2 0.36,-0.32 0.6,-0.48 0.8,-0.48 0.36,0 0.52,0.28 0.44,0.6 z"
         style="font-style:normal;font-variant:normal;font-weight:normal;font-stretch:normal;font-family:'Nautilus Pompilius';-inkscape-font-specification:'Nautilus Pompilius';fill:#6bde85;fill-opacity:1"
         id="path4168-5" />
      <path
         inkscape:connector-curvature="0"
         d="m 160.15617,284.16684 c -0.24,1.56 0.92,2.8 2.48,2.8 1.56,0 2.88,-1.24 3.12,-2.8 0.16,-1.56 -1,-2.8 -2.56,-2.8 -1.56,0 -2.88,1.24 -3.04,2.8 z m -3.64,20.92 c -0.76,3.64 1.56,4.76 3.56,4.76 2.68,0 5.36,-1.84 7.24,-3.96 0.24,-0.28 0.36,-0.6 0.36,-0.88 0,-0.4 -0.24,-0.76 -0.68,-0.96 -1,1 -2.72,2 -4.2,2 -1.04,0 -1.68,-0.72 -1.2,-2.96 l 2.44,-11.56 c 0.32,-1.52 -0.48,-2.2 -1.92,-2.2 -1.68,0 -3.12,0.84 -4.48,1.92 -0.8,0.64 -0.52,1.88 0,2.2 0.36,-0.32 0.6,-0.48 0.8,-0.48 0.36,0 0.52,0.36 0.4,1 l -2.32,11.12 z"
         style="font-style:normal;font-variant:normal;font-weight:normal;font-stretch:normal;font-family:'Nautilus Pompilius';-inkscape-font-specification:'Nautilus Pompilius';fill:#6bde85;fill-opacity:1"
         id="path4170-3" />
      <path
         inkscape:connector-curvature="0"
         d="m 172.79805,309.84684 c 3.52,0 7.2,-2.48 7.2,-4.68 0,-0.68 -0.44,-1.08 -1.2,-1.08 -0.68,1.44 -1.96,2.28 -3.72,2.28 -1.72,0 -3.08,-0.92 -3.48,-2.96 7.72,-4.28 9.52,-7 9.52,-10.4 0,-1.8 -0.92,-3.84 -4.56,-3.84 -6.6,0 -10.04,8.32 -10.04,13.52 0,5.24 2.6,7.16 6.28,7.16 z m 4.04,-17.56 c 0.68,0 1.16,0.64 1.16,1.56 0,2.6 -2.64,5.4 -6.52,7.84 0.12,-2.8 1.4,-9.4 5.36,-9.4 z"
         style="font-style:normal;font-variant:normal;font-weight:normal;font-stretch:normal;font-family:'Nautilus Pompilius';-inkscape-font-specification:'Nautilus Pompilius';fill:#6bde85;fill-opacity:1"
         id="path4172-5" />
      <path
         inkscape:connector-curvature="0"
         d="m 202.34117,289.16684 c -5.56,0 -10.08,6.96 -10.08,13.96 0,2.56 0.84,6.72 5,6.72 2.28,0 4.4,-1.68 6.08,-4.04 -0.04,3.16 1.84,4.04 3.72,4.04 2.16,0 5.04,-1.84 6.92,-3.96 0.24,-0.28 0.36,-0.6 0.36,-0.88 0,-0.4 -0.24,-0.76 -0.68,-0.96 -1,1 -2.72,2 -4.2,2 -1.04,0 -1.68,-0.72 -1.2,-2.96 l 2.8,-13.24 c -0.48,-0.32 -1.16,-0.52 -1.88,-0.52 -1,0 -2.04,0.36 -2.72,1.16 -1,-0.88 -2.32,-1.32 -4.12,-1.32 z m 1.08,14.04 c -1.08,1.48 -2.76,2.52 -4.04,2.52 -1.24,0 -2.16,-0.88 -2.16,-2.88 0,-4.36 1.72,-10.68 6.56,-10.68 0.6,0 1.2,0.08 1.88,0.32 l -2.24,10.72 z"
         style="font-style:normal;font-variant:normal;font-weight:normal;font-stretch:normal;font-family:'Nautilus Pompilius';-inkscape-font-specification:'Nautilus Pompilius';fill:#6bde85;fill-opacity:1"
         id="path4174-6" />
      <path
         inkscape:connector-curvature="0"
         d="m 209.07867,324.08684 c 0.48,0.32 1.16,0.52 1.88,0.52 1.44,0 2.84,-0.68 3.24,-2.52 l 2.76,-13.28 c 0.8,0.68 1.8,1.04 2.76,1.04 6.84,0 11.2,-7.92 11.2,-13.92 0,-3.64 -1.56,-6.6 -5.08,-6.6 -2,0 -3.88,1.24 -5.44,3.16 l 0.2,-0.96 c 0.36,-1.52 -0.48,-2.2 -1.92,-2.2 -1.68,0 -3.12,0.84 -4.48,1.92 -0.8,0.64 -0.52,1.88 0,2.2 0.36,-0.32 0.6,-0.48 0.8,-0.48 0.36,0 0.56,0.36 0.4,1 l -6.32,30.12 z m 14.56,-30.76 c 1.36,0 2.36,1.24 2.36,4.04 0,3.96 -2.44,9.4 -6.52,9.4 -0.64,0 -1.28,-0.04 -2,-0.44 l 2.2,-10.44 c 1.32,-1.64 2.76,-2.56 3.96,-2.56 z"
         style="font-style:normal;font-variant:normal;font-weight:normal;font-stretch:normal;font-family:'Nautilus Pompilius';-inkscape-font-specification:'Nautilus Pompilius';fill:#6bde85;fill-opacity:1"
         id="path4176-2" />
      <path
         inkscape:connector-curvature="0"
         d="m 228.14117,324.08684 c 0.48,0.32 1.16,0.52 1.88,0.52 1.44,0 2.84,-0.68 3.24,-2.52 l 2.76,-13.28 c 0.8,0.68 1.8,1.04 2.76,1.04 6.84,0 11.2,-7.92 11.2,-13.92 0,-3.64 -1.56,-6.6 -5.08,-6.6 -2,0 -3.88,1.24 -5.44,3.16 l 0.2,-0.96 c 0.36,-1.52 -0.48,-2.2 -1.92,-2.2 -1.68,0 -3.12,0.84 -4.48,1.92 -0.8,0.64 -0.52,1.88 0,2.2 0.36,-0.32 0.6,-0.48 0.8,-0.48 0.36,0 0.56,0.36 0.4,1 l -6.32,30.12 z m 14.56,-30.76 c 1.36,0 2.36,1.24 2.36,4.04 0,3.96 -2.44,9.4 -6.52,9.4 -0.64,0 -1.28,-0.04 -2,-0.44 l 2.2,-10.44 c 1.32,-1.64 2.76,-2.56 3.96,-2.56 z"
         style="font-style:normal;font-variant:normal;font-weight:normal;font-stretch:normal;font-family:'Nautilus Pompilius';-inkscape-font-specification:'Nautilus Pompilius';fill:#6bde85;fill-opacity:1"
         id="path4178-9" />
    </g>
  </g>
</svg>
