<?xml version="1.0" encoding="UTF-8" standalone="no"?>
<!-- Created with Inkscape (http://www.inkscape.org/) -->

<svg
   xmlns:dc="http://purl.org/dc/elements/1.1/"
   xmlns:cc="http://creativecommons.org/ns#"
   xmlns:rdf="http://www.w3.org/1999/02/22-rdf-syntax-ns#"
   xmlns:svg="http://www.w3.org/2000/svg"
   xmlns="http://www.w3.org/2000/svg"
   xmlns:sodipodi="http://sodipodi.sourceforge.net/DTD/sodipodi-0.dtd"
   xmlns:inkscape="http://www.inkscape.org/namespaces/inkscape"
   width="64"
   height="64"
   viewBox="0 0 64 64"
   id="svg4173"
   version="1.1"
   inkscape:version="0.91 r13725"
   sodipodi:docname="404.svg">
  <defs
     id="defs4175" />
  <sodipodi:namedview
     id="base"
     pagecolor="#ffffff"
     bordercolor="#666666"
     borderopacity="1.0"
     inkscape:pageopacity="0.0"
     inkscape:pageshadow="2"
     inkscape:zoom="7.9195959"
     inkscape:cx="25.880506"
     inkscape:cy="15.4824"
     inkscape:document-units="px"
     inkscape:current-layer="layer1"
     showgrid="false"
     fit-margin-top="0"
     fit-margin-left="0"
     fit-margin-right="0"
     fit-margin-bottom="0"
     units="px"
     inkscape:window-width="1920"
     inkscape:window-height="1056"
     inkscape:window-x="0"
     inkscape:window-y="24"
     inkscape:window-maximized="1" />
  <metadata
     id="metadata4178">
    <rdf:RDF>
      <cc:Work
         rdf:about="">
        <dc:format>image/svg+xml</dc:format>
        <dc:type
           rdf:resource="http://purl.org/dc/dcmitype/StillImage" />
        <dc:title></dc:title>
      </cc:Work>
    </rdf:RDF>
  </metadata>
  <g
     inkscape:label="Layer 1"
     inkscape:groupmode="layer"
     id="layer1"
     transform="translate(-105.38279,-273.2493)">
    <g
       id="g4770"
       transform="translate(1.9247952e-6,-14.746437)">
      <path
         d="m 158.40355,332.08193 c 0.73071,-0.28425 1.27188,-0.87121 1.44194,-1.56566 l 9.50207,-22.25676 c 0.1095,-0.42059 -0.0405,-0.83986 -0.39111,-1.09354 l -4.93119,-3.56757 c -0.80531,-0.5824 -2.08514,-0.14131 -2.39525,0.82166 l 0,0 c -0.30234,0.93845 0.0132,1.89825 0.80629,2.4538 l 2.30812,1.61726 c 0.3691,0.25864 0.52251,0.6993 0.39478,1.1344 l -13.14834,24.95217 6.41277,-2.49578 z"
         style="fill:#d6d6d6;fill-opacity:1;fill-rule:nonzero;stroke:none"
         id="path552"
         inkscape:connector-curvature="0" />
      <path
         d="m 105.39216,322.71326 c -0.0398,-0.78305 0.27401,-1.5171 0.83794,-1.95664 l 16.41406,-17.78287 c 0.3389,-0.27211 0.78278,-0.307 1.15781,-0.091 l 5.27403,3.03788 c 0.8611,0.49621 0.98276,1.84446 0.23125,2.52169 l 0,0 c -0.73235,0.66011 -1.73722,0.76527 -2.56881,0.26922 l -2.42061,-1.44347 c -0.38712,-0.23081 -0.85195,-0.19032 -1.1966,0.10437 l -17.38001,22.21317 -0.34906,-6.87244 z"
         style="fill:#dbd9d9;fill-opacity:1;fill-rule:nonzero;stroke:none"
         id="path556"
         inkscape:connector-curvature="0" />
      <path
         d="m 136.76028,330.3552 18.87633,6.80887 c 0.78976,0.28487 1.71636,-0.16736 2.07078,-1.01302 l 4.00792,-9.56132 c 0.37063,-0.88422 0.0143,-1.84076 -0.79736,-2.13353 l -22.98017,-8.28917 -2.55398,7.08041 1.37648,7.10776 z"
         style="fill:#e0e0e0;fill-opacity:1;fill-rule:nonzero;stroke:none"
         id="path560"
         inkscape:connector-curvature="0" />
      <path
         d="m 127.5822,334.58767 -20.06679,0 c -0.83957,0 -1.55775,-0.73982 -1.60421,-1.65555 l -0.52589,-10.35403 c -0.0486,-0.95752 0.61113,-1.7364 1.47399,-1.7364 l 24.42946,0 0,7.52695 -3.70656,6.21903 z"
         style="fill:#eaeaea;fill-opacity:1;fill-rule:nonzero;stroke:none"
         id="path564"
         inkscape:connector-curvature="0" />
      <path
         d="m 123.9537,332.47768 -12.35357,0 c -1.40643,0 -2.602,-1.24578 -2.67072,-2.79121 l -0.16769,-3.77053 c -0.07,-1.57841 1.03438,-2.86518 2.46721,-2.86518 l 12.58644,0 c 1.43298,0 2.60702,1.28677 2.62205,2.86518 l 0.0361,3.77053 c 0.0148,1.54543 -1.11343,2.79121 -2.51986,2.79121"
         style="fill:#6ef7b3;fill-opacity:1;fill-rule:nonzero;stroke:none"
         id="path568"
         inkscape:connector-curvature="0" />
      <path
         d="m 126.47357,329.68643 -0.0361,-3.77052 c -0.0151,-1.5784 -1.18905,-2.86518 -2.62205,-2.86518 l -12.58643,0 c -0.65109,0 -1.2336,0.26827 -1.67011,0.70748 l 15.74793,8.28855 c 0.70875,-0.49316 1.17638,-1.36313 1.1668,-2.36033"
         style="fill:#85e0b3;fill-opacity:1;fill-rule:nonzero;stroke:none"
         id="path572"
         inkscape:connector-curvature="0" />
      <path
         d="m 152.51018,333.79328 -11.62069,-4.1917 c -1.32301,-0.47722 -1.96153,-2.0319 -1.42328,-3.48064 l 1.31329,-3.53459 c 0.54976,-1.47967 2.09073,-2.29174 3.43855,-1.80557 l 11.83988,4.27076 c 1.34784,0.48618 1.95013,2.07135 1.34853,3.53231 l -1.43698,3.48997 c -0.58897,1.43046 -2.13635,2.19665 -3.45936,1.71943"
         style="fill:#a38596;fill-opacity:1;fill-rule:nonzero;stroke:none"
         id="path576"
         inkscape:connector-curvature="0" />
      <path
         d="m 155.96953,332.07381 1.43711,-3.48994 c 0.60166,-1.46092 -6.9e-4,-3.04613 -1.34866,-3.53235 l -11.83973,-4.2707 c -0.61261,-0.22098 -1.26519,-0.17118 -1.84717,0.0858 l 11.57998,12.9883 c 0.85902,-0.21442 1.63835,-0.85814 2.01847,-1.78112"
         style="fill:#98758a;fill-opacity:1;fill-rule:nonzero;stroke:none"
         id="path580"
         inkscape:connector-curvature="0" />
    </g>
  </g>
</svg>
